/* XPM */
static char *_____________[] = {
/* columns rows colors chars-per-pixel */
"32 32 171 2",
"   c #010201",
".  c #050A04",
"X  c #090B03",
"o  c #060C08",
"O  c #090E09",
"+  c #110E08",
"@  c #0F1106",
"#  c #0D110C",
"$  c #111206",
"%  c #12140C",
"&  c #1C150C",
"*  c #17180F",
"=  c #1C1A0C",
"-  c #131612",
";  c #1A1711",
":  c #151815",
">  c #1C1B14",
",  c #191E1A",
"<  c #211D0F",
"1  c #221C15",
"2  c #241F19",
"3  c #1D211B",
"4  c #2B2314",
"5  c #24221B",
"6  c #2A241B",
"7  c #2E291D",
"8  c #362015",
"9  c #3F2A15",
"0  c #312B1C",
"q  c #3C2D1C",
"w  c #172129",
"e  c #252726",
"r  c #2B2722",
"t  c #2D2B25",
"y  c #272928",
"u  c #352D24",
"i  c #3A2E23",
"p  c #363124",
"a  c #3C3326",
"s  c #35342C",
"d  c #3D362D",
"f  c #313131",
"g  c #3C3C35",
"h  c #403022",
"j  c #4D3B26",
"k  c #41362E",
"l  c #453B2D",
"z  c #423632",
"x  c #4B3D34",
"c  c #3E403D",
"v  c #56412D",
"b  c #4F4134",
"n  c #46443B",
"m  c #4C4139",
"M  c #594032",
"N  c #54463B",
"B  c #644D3C",
"V  c #684B3A",
"C  c #403E40",
"Z  c #454843",
"A  c #4D4940",
"S  c #4B4C49",
"D  c #5C4C43",
"F  c #514B48",
"G  c #5C5347",
"H  c #51524C",
"J  c #5A544C",
"K  c #535551",
"L  c #5A5955",
"P  c #585B59",
"I  c #605146",
"U  c #65544A",
"Y  c #6F5B49",
"T  c #7B6347",
"R  c #75614E",
"E  c #666253",
"W  c #6A655D",
"Q  c #7A6255",
"!  c #7D6853",
"~  c #4E5465",
"^  c #415168",
"/  c #656361",
"(  c #706E62",
")  c #74726E",
"_  c #757572",
"`  c #7A7670",
"'  c #777877",
"]  c #7B7971",
"[  c #7D7D7A",
"{  c #87523C",
"}  c #835E46",
"|  c #8E5E42",
" . c #82624E",
".. c #8B6D56",
"X. c #927057",
"o. c #9D7356",
"O. c #90725B",
"+. c #9C765C",
"@. c #9D7C5E",
"#. c #B47D4C",
"$. c #A17A5E",
"%. c #AA7B5C",
"&. c #B27D51",
"*. c #8C7766",
"=. c #9D7D62",
"-. c #A67E63",
";. c #AD7E61",
":. c #7F807D",
">. c #B1805F",
",. c #B9865E",
"<. c #83857F",
"1. c #948275",
"2. c #AE8469",
"3. c #AA886D",
"4. c #BC8662",
"5. c #BA8C67",
"6. c #B98D6E",
"7. c #BF8E71",
"8. c #BA9072",
"9. c #B5927F",
"0. c #C08B64",
"q. c #C5936A",
"w. c #CA946A",
"e. c #D2956A",
"r. c #C19075",
"t. c #C59971",
"y. c #CD9A74",
"u. c #CC9E7F",
"i. c #D39F75",
"p. c #D39F79",
"a. c #CCA17C",
"s. c #D5A37C",
"d. c #DCA57D",
"f. c #8D8D8B",
"g. c #908F8D",
"h. c #94918C",
"j. c #969593",
"k. c #959897",
"l. c #9B9B96",
"z. c #9B9B99",
"x. c #BAA28A",
"c. c #A3A29E",
"v. c #A4A4A2",
"b. c #AAABA9",
"n. c #B5B1AC",
"m. c #BBBBB8",
"M. c #C79E81",
"N. c #C6A589",
"B. c #DCA681",
"V. c #D4AA87",
"C. c #DAAA86",
"Z. c #D0AE8C",
"A. c #DCAC88",
"S. c #DEB28D",
"D. c #CEAA92",
"F. c #D0B598",
"G. c #E6AF82",
"H. c #E1AF89",
"J. c #E4B38D",
"K. c #E8B18C",
"L. c #E9B98F",
"P. c #ECBE9B",
"I. c #C4B6A9",
"U. c #D7B7A0",
"Y. c #EFC297",
"T. c #F3C198",
"R. c #F0C5A3",
"E. c #F4CFAE",
"W. c #CECECE",
"Q. c #D2D2CF",
"!. c None",
/* pixels */
"!.!.!.!.!.!.!.!.!.!.!.!.!.!.!.!.!.!.!.!.!.!.!.!.!.!.!.!.!.!.!.!.",
"!.!.!.!.!.!.!.!.!.!.!.!.!.!.!.!.!.b.O $ F !.!.!.!.!.!.!.!.!.!.!.",
"!.!.!.!.!.!.!.!.!.!.!.!.!.!.!.!.!.c . o   : !.!.!.!.!.!.!.!.!.!.",
"!.!.!.!.!.!.!.!.!.!.!.!.!.!.!.!.k.% 3 3 O   _ !.!.!.!.!.!.!.!.!.",
"!.!.!.!.!.!.!.!.!.!.!.!.!.!.!.!.3 . - - , # Z !.!.!.!.!.!.!.!.!.",
"!.!.!.!.!.!.!.!.!.!.!.!.!.!.!.!.w O & 3 , - K !.!.!.!.!.!.!.!.!.",
"!.!.!.!.!.!.!.!.!.!.!.!.!.!.!.!.^ c  .u x $ z.!.!.!.!.!.!.!.!.!.",
"!.!.!.!.!.!.!.!.!.!.!.!.!.!.!.!.!.~ | X.%.5 !.!.!.!.!.!.!.!.!.!.",
"!.!.!.!.!.!.!.!.!.!.!.!.!.!.!.!.!.*.Q 4.{ $.S.!.!.!.!.!.!.!.!.!.",
"!.!.!.!.!.!.!.!.!.!.!.!.!.!.!.!.r.p.e.p.J.P.E.J.!.!.!.!.!.!.!.!.",
"!.!.!.!.!.!.!.!.!.!.!.!.!.!.a.0.i.y.B.L.H.P.P.R.C.!.!.!.!.!.!.!.",
"!.!.!.!.!.!.!.!.!.!.!.!.!.s.y.y.B.B.A.J.T.Y.s.s.A.Z.!.!.!.!.!.!.",
"!.!.!.!.!.!.W.*./ k.!.!.!.w.q.d.d.L.G.y.a.L.V.N.w.t.W !.!.!.!.!.",
"!.!.!.Q.j.) ,     , !.!.!.&.,.q.d.L.@.< X v !.!.F.j . <.!.!.!.!.",
"!.!.v.r _ v.!.f.P . / !.!.&.q X T i.1 0 6 X !.!.!.P   . !.!.!.!.",
"!.!.g ] !.!.!.!.!.z.  !.!.4.1.4 1 i $ 4 a . !.!.!.!.S . @ !.!.!.",
"!.!.> ) !.!.!.!.!.!., S !.i I.0 7 - @ = = , !.!.!.!.z.  e !.!.!.",
"!.!.1 [ !.!.!.!.!.!.f.  L   i a X 1 * 0 2 e !.!.!.!.% . !.!.!.!.",
"!.!.1 f.!.!.!.!.!.!.!.>   X   5 p r 0 l > X !.!.!.d   c.!.!.!.!.",
"!.!.  g.!.!.!.!.!.!.!.'     e s u u l b 5 . H !.G 9 :.!.!.!.!.!.",
"!.m.& h.!.!.!.!.!.!.!.!.y   P W l u d N u + =     J !.!.!.!.!.!.",
"!.h.q l.!.!.!.!.!.!.!.!.!.f !.` D u i x 6 1 @ t z.!.!.!.!.!.!.!.",
"!.<.1 n.!.!.!.!.!.!.!.!.!.!.!.!.D p 6 z m z 5 c !.!.!.!.!.!.!.!.",
"!.W 4 c.!.!.!.!.!.!.!.!.!.!.!.!.I u e r z U U R !.!.!.!.!.!.!.!.",
"!.E 2 l.!.!.!.!.!.!.!.!.!.!.!.!.b p 6 5 u 7 ! J.!.!.!.!.!.!.!.!.",
"!.A & c.!.!.!.!.!.!.!.!.!.!.!.!.B p 6 - N 7.=.J.!.!.!.!.!.!.!.!.",
"!.t < !.!.!.!.!.!.!.!.!.!.!.!.x.>.+.&   B A.@.J.U.!.!.!.!.!.!.!.",
"!.5 6 !.!.!.!.!.!.!.!.!.!.!.!.%.A.C.V    .J.=.C.D.!.!.!.!.!.!.!.",
"!.n 6 !.!.!.!.!.!.!.!.!.!.!.9.d.C.S.,.8 r.K.3.K.D.!.!.!.!.!.!.!.",
"!.v.z !.!.!.!.!.!.!.!.!.!.!.x u.J.s.M.!.%.O.Y V h.!.!.!.!.!.!.!.",
"!.!.!.!.!.!.!.!.!.!.!.!.!.*.& 2 ..w.!.!.> 1 x 1 !.!.!.!.!.!.!.!.",
"!.!.!.!.!.!.!.!.!.!.!.!.!.r.6.x   ! !.!...2.8.-.!.!.!.!.!.!.!.!."
};
